<?xml version="1.0" encoding="utf-8"?>
<!-- Generator: Adobe Illustrator 16.0.4, SVG Export Plug-In . SVG Version: 6.00 Build 0)  -->
<!DOCTYPE svg PUBLIC "-//W3C//DTD SVG 1.1//EN" "http://www.w3.org/Graphics/SVG/1.1/DTD/svg11.dtd">
<svg version="1.1" id="Ebene_1" xmlns="http://www.w3.org/2000/svg" xmlns:xlink="http://www.w3.org/1999/xlink" x="0px" y="0px"
	 width="100px" height="100px" viewBox="0 0 100 100" enable-background="new 0 0 100 100" xml:space="preserve">
<path d="M94.025,78.908c-0.078-0.062-3.531-3.781-5.921-8.576c4.296-4.232,6.873-9.545,6.873-15.34
	c0-12.499-11.95-22.824-27.524-24.667C62.549,21.327,50.973,15,37.491,15C19.543,15,4.998,26.185,4.998,39.995
	c0,5.78,2.578,11.091,6.874,15.339c-2.39,4.797-5.827,8.516-5.89,8.576c-0.984,1.047-1.266,2.578-0.688,3.906
	c0.562,1.328,1.875,2.186,3.312,2.186c8.357,0,15.105-3.154,19.559-6.061c1.42,0.328,2.875,0.578,4.373,0.75
	C37.461,73.674,49.021,80,62.502,80c3.248,0,6.373-0.375,9.342-1.061C76.295,81.83,83.028,85,91.401,85
	c1.438,0,2.733-0.857,3.312-2.186C95.274,81.486,95.008,79.955,94.025,78.908L94.025,78.908z M29.274,59.055l-2.062-0.471
	l-1.781,1.156c-3.141,2.047-7.889,4.406-13.7,5.078c1.375-1.766,3.155-4.312,4.608-7.25l1.625-3.248l-2.578-2.547
	c-2.469-2.422-5.391-6.437-5.391-11.779c0-11.029,12.342-19.996,27.494-19.996c15.153,0,27.494,8.967,27.494,19.996
	S52.644,59.99,37.49,59.99C34.725,59.99,31.961,59.68,29.274,59.055z M74.545,74.736l-1.781-1.154l-2.062,0.484
	c-2.688,0.623-5.452,0.936-8.217,0.936c-10.17,0-19.06-4.045-23.808-10.043c17.387-0.5,31.306-11.467,31.306-24.963
	c0-1.484-0.203-2.921-0.517-4.327c11.778,2.265,20.512,10.06,20.512,19.324c0,5.344-2.922,9.357-5.389,11.779l-2.578,2.547
	l1.608,3.232c1.47,2.953,3.249,5.5,4.608,7.248C82.434,79.143,77.685,76.768,74.545,74.736z"/>
</svg>
