<?xml version="1.0" encoding="utf-8"?>
<!-- Generator: Adobe Illustrator 16.0.4, SVG Export Plug-In . SVG Version: 6.00 Build 0)  -->
<!DOCTYPE svg PUBLIC "-//W3C//DTD SVG 1.1//EN" "http://www.w3.org/Graphics/SVG/1.1/DTD/svg11.dtd">
<svg version="1.1" id="Ebene_1" xmlns="http://www.w3.org/2000/svg" xmlns:xlink="http://www.w3.org/1999/xlink" x="0px" y="0px"
	 width="100px" height="100px" viewBox="0 0 100 100" enable-background="new 0 0 100 100" xml:space="preserve">
<path d="M88.75,70H40v-6.25c0-2.078-1.672-3.751-3.75-3.751h-7.501c-2.078,0-3.75,1.673-3.75,3.751V70h-13.75
	C10.561,70,10,70.562,10,71.25v2.5c0,0.686,0.563,1.249,1.249,1.249H25v6.248C25,83.328,26.671,85,28.75,85h7.502
	c2.078,0,3.75-1.672,3.75-3.753v-6.248h48.75c0.688,0,1.25-0.563,1.25-1.249v-2.5C90.001,70.562,89.438,70,88.75,70z M35,80h-5
	V65.002h5V80z M88.75,25H50v-6.25c0-2.078-1.672-3.75-3.75-3.75h-7.501c-2.078,0-3.75,1.672-3.75,3.75V25h-23.75
	C10.561,25,10,25.563,10,26.251v2.499c0,0.688,0.562,1.25,1.249,1.25H35v6.25c0,2.078,1.672,3.75,3.75,3.75h7.501
	c2.078,0,3.75-1.672,3.75-3.751v-6.25H88.75c0.688,0,1.251-0.562,1.251-1.25v-2.499C90.001,25.562,89.438,25,88.75,25z M45,35h-5V20
	h5V35z M88.75,47.501H74.999v-6.25c0-2.078-1.671-3.75-3.749-3.75h-7.5c-2.078,0-3.751,1.672-3.751,3.75v6.25H11.248
	c-0.687,0-1.249,0.562-1.249,1.25v2.5c0,0.687,0.563,1.249,1.249,1.249h48.751v6.25c0,2.079,1.673,3.751,3.751,3.751h7.5
	c2.078,0,3.751-1.672,3.751-3.751V52.5h13.75c0.688,0,1.25-0.562,1.25-1.249v-2.5C90.001,48.062,89.438,47.501,88.75,47.501z
	 M70,57.499h-5v-15h5V57.499z"/>
</svg>
