<?xml version="1.0" encoding="UTF-8" standalone="no"?>
<svg
   xmlns:dc="http://purl.org/dc/elements/1.1/"
   xmlns:cc="http://creativecommons.org/ns#"
   xmlns:rdf="http://www.w3.org/1999/02/22-rdf-syntax-ns#"
   xmlns:svg="http://www.w3.org/2000/svg"
   xmlns="http://www.w3.org/2000/svg"
   xmlns:sodipodi="http://sodipodi.sourceforge.net/DTD/sodipodi-0.dtd"
   xmlns:inkscape="http://www.inkscape.org/namespaces/inkscape"
   inkscape:export-ydpi="96"
   inkscape:export-xdpi="96"
   inkscape:export-filename="/Users/marko/bitmap.png"
   viewBox="0 0 200 200"
   version="1.1"
   id="svg21"
   sodipodi:docname="userfriends.svg"
   width="200"
   height="200"
   inkscape:version="1.0beta2 (2b71d25, 2019-12-03)">
  <metadata
     id="metadata27">
    <rdf:RDF>
      <cc:Work
         rdf:about="">
        <dc:format>image/svg+xml</dc:format>
        <dc:type
           rdf:resource="http://purl.org/dc/dcmitype/StillImage" />
        <dc:title />
      </cc:Work>
    </rdf:RDF>
  </metadata>
  <defs
     id="defs25" />
  <sodipodi:namedview
     pagecolor="#ffffff"
     bordercolor="#666666"
     inkscape:document-rotation="0"
     borderopacity="1"
     objecttolerance="10"
     gridtolerance="10"
     guidetolerance="10"
     inkscape:pageopacity="0"
     inkscape:pageshadow="2"
     inkscape:window-width="1714"
     inkscape:window-height="1471"
     id="namedview23"
     showgrid="false"
     units="px"
     width="200mm"
     inkscape:zoom="0.61328125"
     inkscape:cx="311.03185"
     inkscape:cy="256"
     inkscape:window-x="152"
     inkscape:window-y="72"
     inkscape:window-maximized="0"
     inkscape:current-layer="svg21" />
  <path
     d="m 150,100 c 16.56249,0 30,-13.437501 30,-30 0,-16.562501 -13.43751,-30.000001 -30,-30.000001 -16.5625,0 -30,13.4375 -30,30.000001 0,16.562499 13.4375,30 30,30 z m 0,-50 c 11.03124,0 19.99999,8.96875 19.99999,20 0,11.03125 -8.96875,20 -19.99999,20 -11.03126,0 -20,-8.96875 -20,-20 0,-11.03125 8.96874,-20 20,-20 z M 60,100 C 79.343749,100 95,84.34375 95,65 95,45.65625 79.343749,30 60,30 40.65625,30 25,45.65625 25,65 c 0,19.34375 15.65625,35 35,35 z M 60,39.999999 C 73.78125,39.999999 84.999999,51.21875 84.999999,65 84.999999,78.78125 73.78125,90 60,90 46.21875,90 35,78.78125 35,65 35,51.21875 46.21875,39.999999 60,39.999999 Z M 85.031249,106.25 C 74.593749,106.25 71.999999,110 60,110 48,110 45.406249,106.25 34.96875,106.25 23.625,106.25 12.59375,111.3125 6.125,120.90624 2.25,126.65624 0,133.5625 0,140.99999 v 14 C 0,163.28124 6.71875,170 15,170 h 90 c 8.28124,0 15,-6.71876 15,-15.00001 v -14 c 0,-7.43749 -2.25,-14.34375 -6.125,-20.09375 C 107.40624,111.3125 96.375,106.25 85.031249,106.25 Z M 110,154.99999 C 110,157.75 107.75,160 105,160 H 15 c -2.75,0 -5,-2.25 -5,-5.00001 v -14 C 10,135.8125 11.53125,130.78124 14.40625,126.5 18.71875,120.09374 26.406249,116.25 34.937499,116.25 43.5,116.25 46.5625,120 60,120 c 13.437499,0 16.499999,-3.75 25.031249,-3.75 8.531251,0 16.218751,3.84374 20.531251,10.25 2.875,4.28124 4.40624,9.3125 4.40624,14.49999 v 14 z m 84.90626,-35.90625 c -5.40626,-8 -14.59376,-12.21874 -24.03127,-12.21874 -8.6875,0 -10.875,3.125 -20.87499,3.125 -10,0 -12.1875,-3.125 -20.875,-3.125 -4.125,0 -8.15626,0.9375 -11.90626,2.53124 4.75,4.8125 5.78126,7.375 6.3125,8.3125 1.78126,-0.5 3.625,-0.8125 5.59376,-0.8125 6.8125,0 9.375,3.125 20.875,3.125 11.5,0 14.0625,-3.125 20.87499,-3.125 6.5625,0 12.43751,2.90626 15.75,7.8125 2.21875,3.28126 3.40627,7.15626 3.40627,11.15626 v 11.62499 c 0,1.375 -1.12502,2.50001 -2.50002,2.50001 H 130 c 0,5.53124 0.0938,7.03126 -0.5,10 h 57.99999 C 194.40626,160 200,154.40626 200,147.49999 v -11.65625 c 0,-6.21874 -1.875,-11.96874 -5.09374,-16.75 z"
     id="path19"
     inkscape:connector-curvature="0"
     style="stroke-width:0.3125" />
</svg>
